# xmcd
#
# Track frame offsets: 
#        150
#        20787
#        49105
#        79124
#        104708
#        106273
#        141601
#        142501
#        179748
#        200523
#        252984
#        269192
#        296539
#        320506
#
# Disc length: 4689 seconds
#
# Revision: 0
# Processed by: cddbd v1.5.2PL0 Copyright (c) Steve Scherf et al.
# Submitted via: ExactAudioCopy v0.99pb4
#
DISCID=e0124f0e
DTITLE=Walter Trout - Unspoiled by progress
DYEAR=2009
DGENRE=Blues
TTITLE0=They call us the workin' class
TTITLE1=Goin' down
TTITLE2=Life in the jungle
TTITLE3=Long tall Sally
TTITLE4=Jimmy as Yoko
TTITLE5=Somebody's acting like a child
TTITLE6=Hey Barney
TTITLE7=Sweet as a flower
TTITLE8=Two sides to every story
TTITLE9=Finally gotten over you
TTITLE10=Goin' back home
TTITLE11=Marie's mood
TTITLE12=She's out there somewhere
TTITLE13=So afraid of the darkness
EXTD=
EXTT0=
EXTT1=
EXTT2=
EXTT3=
EXTT4=
EXTT5=
EXTT6=
EXTT7=
EXTT8=
EXTT9=
EXTT10=
EXTT11=
EXTT12=
EXTT13=
PLAYORDER=
